<svg xmlns="http://www.w3.org/2000/svg" version="1.1" xmlns:xlink="http://www.w3.org/1999/xlink" xmlns:svgjs="http://svgjs.dev/svgjs" width="1000" height="623" viewBox="0 0 1000 623"><g transform="matrix(1,0,0,1,-0.6060606060606233,0.2522267206477409)"><svg viewBox="0 0 396 247" data-background-color="#ffffff" preserveAspectRatio="xMidYMid meet" height="623" width="1000" xmlns="http://www.w3.org/2000/svg" xmlns:xlink="http://www.w3.org/1999/xlink"><g id="tight-bounds" transform="matrix(1,0,0,1,0.2400000000000091,-0.09999999999999432)"><svg viewBox="0 0 395.52 247.2" height="247.2" width="395.52"><g><svg></svg></g><g><svg viewBox="0 0 395.52 247.2" height="247.2" width="395.52"><g transform="matrix(1,0,0,1,39.55199999999999,95.09664786169245)"><svg viewBox="0 0 316.416 57.0067042766151" height="57.0067042766151" width="316.416"><g><svg viewBox="0 0 316.416 57.0067042766151" height="57.0067042766151" width="316.416"><g><svg viewBox="0 0 316.416 57.0067042766151" height="57.0067042766151" width="316.416"><g><svg viewBox="0 0 316.416 57.0067042766151" height="57.0067042766151" width="316.416"><g><svg viewBox="0 0 316.416 57.0067042766151" height="57.0067042766151" width="316.416"><g><svg viewBox="0 0 316.416 57.0067042766151" height="57.0067042766151" width="316.416"><g transform="matrix(1,0,0,1,0,0)"><svg width="316.416" viewBox="2.85 -39 219.78 39.6" height="57.0067042766151" data-palette-color="#1e55b3"><path d="M14.35-26.95Q16.7-26.95 18.65-26.28 20.6-25.6 22.4-24.1L22.4-24.1 20.2-21.2Q18.8-22.2 17.48-22.68 16.15-23.15 14.55-23.15L14.55-23.15Q11.35-23.15 9.58-20.6 7.8-18.05 7.8-13.05L7.8-13.05Q7.8-8.05 9.55-5.68 11.3-3.3 14.55-3.3L14.55-3.3Q16.1-3.3 17.4-3.78 18.7-4.25 20.3-5.3L20.3-5.3 22.4-2.3Q18.8 0.6 14.35 0.6L14.35 0.6Q9 0.6 5.93-3 2.85-6.6 2.85-12.95L2.85-12.95Q2.85-17.15 4.25-20.3 5.65-23.45 8.22-25.2 10.8-26.95 14.35-26.95L14.35-26.95ZM38.55-26.95Q44.1-26.95 47.17-23.25 50.25-19.55 50.25-13.2L50.25-13.2Q50.25-9.1 48.85-5.98 47.45-2.85 44.8-1.13 42.15 0.6 38.5 0.6L38.5 0.6Q32.95 0.6 29.85-3.1 26.75-6.8 26.75-13.15L26.75-13.15Q26.75-17.25 28.15-20.38 29.55-23.5 32.2-25.23 34.85-26.95 38.55-26.95L38.55-26.95ZM38.55-23.25Q31.7-23.25 31.7-13.15L31.7-13.15Q31.7-3.1 38.5-3.1L38.5-3.1Q45.3-3.1 45.3-13.2L45.3-13.2Q45.3-23.25 38.55-23.25L38.55-23.25ZM67.45-26.95Q69.8-26.95 71.75-26.28 73.7-25.6 75.5-24.1L75.5-24.1 73.3-21.2Q71.9-22.2 70.57-22.68 69.25-23.15 67.65-23.15L67.65-23.15Q64.45-23.15 62.67-20.6 60.9-18.05 60.9-13.05L60.9-13.05Q60.9-8.05 62.65-5.68 64.4-3.3 67.65-3.3L67.65-3.3Q69.2-3.3 70.5-3.78 71.8-4.25 73.4-5.3L73.4-5.3 75.5-2.3Q71.9 0.6 67.45 0.6L67.45 0.6Q62.1 0.6 59.02-3 55.95-6.6 55.95-12.95L55.95-12.95Q55.95-17.15 57.35-20.3 58.75-23.45 61.32-25.2 63.9-26.95 67.45-26.95L67.45-26.95ZM81.74-36.95L86.34-37.5 86.34 0 81.74 0 81.74-36.95ZM96.34-26.35L101.49-26.35 91.79-14.7 102.59 0 97.09 0 86.64-14.4 96.34-26.35ZM118.89-4.25L120.64-1.2Q118.04 0.6 114.74 0.6L114.74 0.6Q111.39 0.6 109.52-1.33 107.64-3.25 107.64-6.9L107.64-6.9 107.64-22.8 103.04-22.8 103.04-26.35 107.64-26.35 107.64-32.3 112.24-32.85 112.24-26.35 118.49-26.35 117.99-22.8 112.24-22.8 112.24-7.1Q112.24-5.05 112.97-4.13 113.69-3.2 115.39-3.2L115.39-3.2Q116.94-3.2 118.89-4.25L118.89-4.25ZM143.14-6.15Q143.14-4.55 143.69-3.78 144.24-3 145.34-2.6L145.34-2.6 144.29 0.6Q142.24 0.35 140.99-0.55 139.74-1.45 139.14-3.35L139.14-3.35Q136.49 0.6 131.29 0.6L131.29 0.6Q127.39 0.6 125.14-1.6 122.89-3.8 122.89-7.35L122.89-7.35Q122.89-11.55 125.91-13.8 128.94-16.05 134.49-16.05L134.49-16.05 138.54-16.05 138.54-18Q138.54-20.8 137.19-22 135.84-23.2 133.04-23.2L133.04-23.2Q130.14-23.2 125.94-21.8L125.94-21.8 124.79-25.15Q129.69-26.95 133.89-26.95L133.89-26.95Q138.54-26.95 140.84-24.68 143.14-22.4 143.14-18.2L143.14-18.2 143.14-6.15ZM132.34-2.85Q136.29-2.85 138.54-6.95L138.54-6.95 138.54-13 135.09-13Q127.79-13 127.79-7.6L127.79-7.6Q127.79-5.25 128.94-4.05 130.09-2.85 132.34-2.85L132.34-2.85ZM152.59-26.35L157.19-26.35 157.19 0 152.59 0 152.59-26.35ZM154.84-39Q156.28-39 157.19-38.1 158.09-37.2 158.09-35.85L158.09-35.85Q158.09-34.5 157.19-33.63 156.28-32.75 154.84-32.75L154.84-32.75Q153.44-32.75 152.53-33.63 151.64-34.5 151.64-35.85L151.64-35.85Q151.64-37.2 152.53-38.1 153.44-39 154.84-39L154.84-39ZM171.93 0.6Q169.38 0.6 167.91-0.93 166.43-2.45 166.43-5.2L166.43-5.2 166.43-36.95 171.03-37.5 171.03-5.3Q171.03-4.2 171.41-3.7 171.78-3.2 172.68-3.2L172.68-3.2Q173.63-3.2 174.38-3.5L174.38-3.5 175.58-0.3Q173.93 0.6 171.93 0.6L171.93 0.6ZM201.23-13.95Q201.23-12.8 201.13-11.6L201.13-11.6 184.33-11.6Q184.63-7.25 186.53-5.2 188.43-3.15 191.43-3.15L191.43-3.15Q193.33-3.15 194.93-3.7 196.53-4.25 198.28-5.45L198.28-5.45 200.28-2.7Q196.08 0.6 191.08 0.6L191.08 0.6Q185.58 0.6 182.51-3 179.43-6.6 179.43-12.9L179.43-12.9Q179.43-17 180.76-20.18 182.08-23.35 184.56-25.15 187.03-26.95 190.38-26.95L190.38-26.95Q195.63-26.95 198.43-23.5 201.23-20.05 201.23-13.95L201.23-13.95ZM196.68-15L196.68-15.3Q196.68-19.2 195.13-21.25 193.58-23.3 190.48-23.3L190.48-23.3Q184.83-23.3 184.33-15L184.33-15 196.68-15ZM220.03-26.95Q221.43-26.95 222.63-26.65L222.63-26.65 221.78-22.15Q220.58-22.45 219.48-22.45L219.48-22.45Q217.03-22.45 215.53-20.65 214.03-18.85 213.18-15.05L213.18-15.05 213.18 0 208.58 0 208.58-26.35 212.53-26.35 212.98-21Q214.03-23.95 215.83-25.45 217.63-26.95 220.03-26.95L220.03-26.95Z" opacity="1" transform="matrix(1,0,0,1,0,0)" fill="#1e55b3" class="undefined-text-0" data-fill-palette-color="primary" id="text-0"></path></svg></g></svg></g></svg></g></svg></g><g></g></svg></g></svg></g></svg></g><g mask="url(#b6c8d97c-fca6-41b1-8f84-0dad050d36b6)"><g transform="matrix(2.7244444444444444, 0, 0, 2.7244444444444444, 108.60391777777777, 1)"><svg xmlns="http://www.w3.org/2000/svg" xmlns:xlink="http://www.w3.org/1999/xlink" version="1.1" x="0" y="0" viewBox="17.275000000000002 5 65.449 90" enable-background="new 0 0 100 100" xml:space="preserve" height="90" width="65.449" class="icon-none" data-fill-palette-color="accent" id="none"><path d="M71.885 20.114l-11.79 13.996h21.28c0 0-11.387 25.992-29.234 27.835v28.854h13.737V95H35.587v-4.201h12.326V61.961c-8.993-1.049-19.382-8.489-30.638-27.852h38.229l13.818-16.406c-1.086-1.964-1.168-4.596 0.012-6.995 1.788-3.646 5.79-5.367 8.939-3.842 0.04 0.017 0.078 0.041 0.118 0.058L80.024 5l2.7 2.243-1.865 2.214c0.973 1.93 1.008 4.457-0.128 6.769C78.958 19.842 75.021 21.563 71.885 20.114z" fill="#ff585f" data-fill-palette-color="accent"></path></svg></g></g></svg></g><defs><mask id="b6c8d97c-fca6-41b1-8f84-0dad050d36b6"><rect width="640" height="400" fill="white"></rect><rect width="348.05760000000004" height="73.64399690633667" fill="black" y="163.17800154683167" x="145.97119999999998" id="transform-me" transform="matrix(1,0,0,1,-122.24000000000001,-76.4)"></rect></mask></defs></svg><rect width="395.52" height="247.2" fill="none" stroke="none" visibility="hidden"></rect></g></svg></g></svg>